<svg xmlns="http://www.w3.org/2000/svg" xmlns:xlink="http://www.w3.org/1999/xlink" width="0" height="0" style="position:absolute">
    <defs>
      
        <svg class="preloader__icon" width="565.433" height="266.711" viewBox="0 0 565.433 266.711" id="main_logo_2" y="0"><path clip-rule="evenodd" d="M30.961 54.217c9.934-13.09 32.423-24.59 53.962-24.59 39.488 0 71.5 32 71.5 71.5 0 93.5-128 39.5-128 139.5h256c37 0 70-31 70-74v-76c0-34-35-62-73-62h-52v139"></path><path d="M428.422 87.626v152M428.422 26.626v1M538.422 238.626s-37 2.154-37-40v-171M502.422 70.626h39"></path></svg>
      
        <svg class="preloader__icon" width="565.433" height="266.711" viewBox="0 0 565.433 266.711" id="main_logo_3" y="267"><path clip-rule="evenodd" d="M30.961 54.217c9.934-13.09 32.423-24.59 53.962-24.59 39.488 0 71.5 32 71.5 71.5 0 93.5-128 39.5-128 139.5h256c37 0 70-31 70-74v-76c0-34-35-62-73-62h-52v139"></path><path d="M428.422 87.626v152M428.422 26.626v1M538.422 238.626s-37 2.154-37-40v-171M502.422 70.626h39"></path></svg>
      
  </defs>
</svg>
